#!OML:ASF G:\JayActor3\Patient Classification 1\Patient 1\Session 5\male.ASF
:FULLY-SPECIFIED
:DEGREES
1103
root 51.4722 13.8298 -4.27762 -100.773 -89.1805 109.467
lowerback 33.9327 -0.883712 1.21899
upperback 7.68955 -1.70231 -1.2896
thorax -8.85419 -1.15173 -1.32444
lowerneck -2.65874 0.331216 0.533392
upperneck -14.7559 0.230606 1.4845
head -4.38372 -0.165106 0.412687
rclavicle -2.14687e-014 -2.92213e-014
rhumerus -20.8465 6.75201 -87.049
rradius 50.3349
rwrist -6.07444
rhand -21.6429 -8.02625
rfingers 7.12502
rthumb 4.75355 -37.9529
lclavicle -2.14687e-014 -2.92213e-014
lhumerus -20.0702 -7.26019 83.6004
lradius 43.0027
lwrist 26.0801
lhand -19.4885 13.8118
lfingers 7.12502
lthumb 6.83361 43.6815
rfemur -69.1302 9.84841 16.4063
rtibia 63.5952
rfoot -6.329 -23.442
rtoes 5.41076
lfemur -41.948 3.1388 -23.0054
ltibia 82.3572
lfoot -27.7303 -4.60574
ltoes -23.4636
1104
root 51.5848 13.8332 -4.2499 -108.939 -88.9887 117.635
lowerback 33.8949 -0.82973 1.11035
upperback 7.69347 -1.68008 -1.35016
thorax -8.83519 -1.1402 -1.33948
lowerneck -2.67338 0.352449 0.539117
upperneck -14.7489 0.252862 1.42973
head -4.37824 -0.151794 0.392541
rclavicle -1.41137e-014 -1.35174e-014
rhumerus -20.8796 6.80281 -87.1155
rradius 50.276
rwrist -6.02542
rhand -21.5768 -8.06889
rfingers 7.12502
rthumb 4.81744 -37.9941
lclavicle -1.41137e-014 -1.35174e-014
lhumerus -20.0591 -7.26103 83.6012
lradius 42.9586
lwrist 26.0781
lhand -19.4792 13.8108
lfingers 7.12502
lthumb 6.84255 43.6802
rfemur -69.3136 9.95704 15.9484
rtibia 63.0062
rfoot -5.54237 -23.4905
rtoes 5.47741
lfemur -42.0395 3.28239 -23.3866
ltibia 81.8488
lfoot -28.2152 -4.29517
ltoes -22.6694
1105
root 51.6973 13.8375 -4.22209 -114.358 -88.7826 123.058
lowerback 33.8586 -0.776512 1.00421
upperback 7.6962 -1.65759 -1.40906
thorax -8.81804 -1.12859 -1.3541
lowerneck -2.67688 0.371167 0.548523
upperneck -14.7635 0.271384 1.37488
head -4.3828 -0.141097 0.37201
rclavicle 1.25234e-014 1.94809e-014
rhumerus -20.9225 6.85466 -87.1768
rradius 50.1897
rwrist -5.9034
rhand -21.5886 -7.96103
rfingers 7.12502
rthumb 4.80603 -37.8865
lclavicle 1.25234e-014 1.94809e-014
lhumerus -20.0532 -7.27088 83.6041
lradius 42.9225
lwrist 26.0812
lhand -19.4515 13.8064
lfingers 7.12502
lthumb 6.86929 43.6749
rfemur -69.517 10.0798 15.4607
rtibia 62.4375
rfoot -4.74178 -23.5383
rtoes 5.49031
lfemur -42.1323 3.42367 -23.777
ltibia 81.3241
lfoot -28.6659 -3.94146
ltoes -21.8844
1106
root 51.8094 13.8425 -4.19414 -117.982 -88.5732 126.687
lowerback 33.8272 -0.727334 0.906948
upperback 7.6955 -1.6366 -1.46635
thorax -8.80666 -1.11771 -1.37102
lowerneck -2.67283 0.385841 0.555527
upperneck -14.791 0.285022 1.32746
head -4.39359 -0.133361 0.354634
rclavicle -4.96962e-015 1.98785e-016
rhumerus -20.9739 6.89335 -87.2302
rradius 50.1433
rwrist -5.8299
rhand -21.5257 -7.98524
rfingers 7.12502
rthumb 4.86678 -37.9093
lclavicle -4.96962e-015 1.98785e-016
lhumerus -20.0596 -7.29184 83.6091
lradius 42.8986
lwrist 26.0853
lhand -19.4101 13.8029
lfingers 7.12502
lthumb 6.90926 43.6702
rfemur -69.745 10.2048 14.9478
rtibia 61.9017
rfoot -3.93394 -23.5709
rtoes 5.34946
lfemur -42.2429 3.56553 -24.1806
ltibia 80.8069
lfoot -29.0731 -3.53195
ltoes -21.1287
1107
root 51.9213 13.8473 -4.16615 -120.47 -88.3757 129.183
lowerback 33.8011 -0.686411 0.825149
upperback 7.69085 -1.61948 -1.51695
thorax -8.80176 -1.10872 -1.38754
lowerneck -2.67167 0.399506 0.558485
upperneck -14.8228 0.297296 1.28334
head -4.40542 -0.126396 0.339131
rclavicle 5.96354e-016 1.53064e-014
rhumerus -21.0347 6.93328 -87.275
rradius 50.0816
rwrist -5.70285
rhand -21.5246 -7.89257
rfingers 7.12502
rthumb 4.86783 -37.8166
lclavicle 5.96354e-016 1.53064e-014
lhumerus -20.0727 -7.31514 83.6174
lradius 42.8814
lwrist 26.0864
lhand -19.3584 13.7895
lfingers 7.12502
lthumb 6.95923 43.6551
rfemur -70.0068 10.3179 14.4254
rtibia 61.4151
rfoot -3.15637 -23.5731
rtoes 4.9588
lfemur -42.3914 3.7074 -24.5909
ltibia 80.318
lfoot -29.4242 -3.06028
ltoes -20.4025
